<?xml version="1.0" encoding="utf-8"?>
<!-- Generator: Adobe Illustrator 27.1.0, SVG Export Plug-In . SVG Version: 6.00 Build 0)  -->
<svg version="1.1" id="Layer_1" xmlns="http://www.w3.org/2000/svg" xmlns:xlink="http://www.w3.org/1999/xlink" x="0px" y="0px"
	 viewBox="0 0 1008 420" style="enable-background:new 0 0 1008 420;" xml:space="preserve">
<style type="text/css">
	.st0{fill:#931913;}
	.st1{fill:#777777;}
</style>
<path class="st0" d="M1028.47-484.37H755.61c-10.17,0-18.42-8.25-18.42-18.42v-40.45c0-10.17,8.25-18.42,18.42-18.42h272.86
	l43.83,38.64L1028.47-484.37z"/>
<path class="st1" d="M1.31,48.36V9.04c0-4.98,4.04-9.02,9.02-9.02h49.95c4.98,0,9.02,4.04,9.02,9.02v39.32
	c0,4.98-4.04,9.02-9.02,9.02H10.34C5.35,57.39,1.31,53.35,1.31,48.36z M3.01,301.22V91.48c0-4.98,4.04-9.02,9.02-9.02h46.55
	c4.98,0,9.02,4.04,9.02,9.02v209.73c0,4.98-4.04,9.02-9.02,9.02H12.04C7.05,310.24,3.01,306.2,3.01,301.22z"/>
<path class="st1" d="M277.21,310.24c-4.98,0-9.02-4.04-9.02-9.02V183.18c0-30.6-14.45-46.32-39.1-46.32
	c-24.65,0-40.37,15.72-40.37,46.32v118.04c0,4.98-4.04,9.02-9.02,9.02h-46.55c-4.98,0-9.02-4.04-9.02-9.02V91.48
	c0-4.98,4.04-9.02,9.02-9.02h46.55c4.98,0,9.02,4.04,9.02,9.02v0c0,7.83,9.28,11.93,15.09,6.67c12.74-11.54,28.91-19.95,51.63-19.95
	c48.87,0,77.34,32.3,77.34,84.57v138.44c0,4.98-4.04,9.02-9.02,9.02H277.21z"/>
<path class="st1" d="M461.54,314.06c-39.52,0-66.29-15.72-66.29-68.42v-98.92c0-4.98-4.04-9.02-9.02-9.02h-9.15
	c-4.98,0-9.02-4.04-9.02-9.02v-37.2c0-4.98,4.04-9.02,9.02-9.02h9.15c4.98,0,9.02-4.04,9.02-9.02V9.34c0-4.98,4.04-9.02,9.02-9.02
	h46.55c4.98,0,9.02,4.04,9.02,9.02v64.09c0,4.98,4.04,9.02,9.02,9.02h35.5c4.98,0,9.02,4.04,9.02,9.02v37.2
	c0,4.98-4.04,9.02-9.02,9.02h-35.5c-4.98,0-9.02,4.04-9.02,9.02v88.29c0,14.87,6.37,22.1,20.82,22.1c7.17,0,13.87-1.08,20.11-3.05
	c5.83-1.84,11.76,2.48,11.76,8.59v32.93c0,3.4-1.93,6.49-4.95,8.06C495.11,310.11,480.63,314.06,461.54,314.06z"/>
<path class="st0" d="M759.96,218.87H622.09c-6.45,0-10.84,6.59-8.32,12.53c8.93,21.13,27.3,32.09,51.75,32.09
	c19.3,0,33.88-5.39,49.44-18.27c3.43-2.84,8.42-2.79,11.76,0.17l24.32,21.52c3.78,3.35,4.12,9.19,0.67,12.87
	c-20.87,22.22-49.56,35.56-87.03,35.56c-68.42,0-118.99-48.02-118.99-117.71v-0.85c0-65.02,46.32-118.56,112.62-118.56
	c76.07,0,110.91,59.07,110.91,123.66v0.85c0,2.95-0.09,5.35-0.23,7.66C768.69,215.16,764.74,218.87,759.96,218.87z M658.29,130.06
	c-22.98,0-39.08,14.09-46.4,36.63c-1.89,5.83,2.47,11.81,8.59,11.81h74.78c6,0,10.33-5.75,8.68-11.52
	C697.55,144.53,681.69,130.06,658.29,130.06z"/>
<path class="st1" d="M914.49,309.34c-68.42,0-118.56-52.7-118.56-117.71v-0.85c0-65.02,49.72-118.56,119.41-118.56
	c38.96,0,64.61,11.9,84.9,31.9c3.47,3.42,3.57,9,0.25,12.57l-27.38,29.44c-3.42,3.68-9.14,3.81-12.82,0.4
	c-12.46-11.55-25.84-18.64-45.38-18.64c-32.3,0-55.25,28.47-55.25,62.05v0.85c0,34.85,22.52,62.89,57.79,62.89
	c18.79,0,32.47-7.03,46.02-18.59c3.61-3.08,8.97-2.88,12.3,0.49l25.61,25.89c3.49,3.53,3.48,9.21-0.02,12.72
	C980.61,294.97,955.78,309.34,914.49,309.34z"/>
<path class="st0" d="M760.76,57.39H559.27c-7.51,0-13.6-6.09-13.6-13.6V13.92c0-7.51,6.09-13.6,13.6-13.6h201.49l32.36,28.53
	L760.76,57.39z"/>
<g>
	<path class="st1" d="M4.82,373.04v-26.95h5.93v26.95H4.82z"/>
	<path class="st1" d="M36,373.04l-13.05-17.13v17.13H17.1v-26.95h5.47l12.63,16.59v-16.59h5.85v26.95H36z"/>
	<path class="st1" d="M56.72,373.43c-4.08,0-8.2-1.42-11.43-4.31l3.5-4.2c2.43,2,4.97,3.27,8.05,3.27c2.42,0,3.89-0.96,3.89-2.54
		v-0.08c0-1.5-0.92-2.27-5.43-3.43c-5.43-1.39-8.93-2.89-8.93-8.24v-0.08c0-4.89,3.93-8.12,9.43-8.12c3.93,0,7.28,1.23,10.01,3.43
		l-3.08,4.47c-2.39-1.66-4.74-2.66-7.01-2.66c-2.27,0-3.46,1.04-3.46,2.35v0.08c0,1.77,1.15,2.35,5.81,3.54
		c5.47,1.42,8.55,3.39,8.55,8.08v0.08C66.61,370.43,62.53,373.43,56.72,373.43z"/>
	<path class="st1" d="M83.59,351.56v21.48h-5.93v-21.48h-8.2v-5.47h22.33v5.47H83.59z"/>
	<path class="st1" d="M96.22,373.04v-26.95h5.93v26.95H96.22z"/>
	<path class="st1" d="M120.71,351.56v21.48h-5.93v-21.48h-8.2v-5.47h22.33v5.47H120.71z"/>
	<path class="st1" d="M144.31,373.47c-7.24,0-11.67-4.04-11.67-11.97v-15.4h5.93v15.25c0,4.39,2.19,6.66,5.81,6.66
		s5.81-2.19,5.81-6.47v-15.44h5.93v15.21C156.13,369.46,151.55,373.47,144.31,373.47z"/>
	<path class="st1" d="M174,351.56v21.48h-5.93v-21.48h-8.2v-5.47h22.33v5.47H174z"/>
	<path class="st1" d="M199.45,373.51c-8.32,0-14.28-6.2-14.28-13.86v-0.08c0-7.66,6.04-13.94,14.36-13.94
		c8.32,0,14.28,6.2,14.28,13.86v0.08C213.81,367.23,207.76,373.51,199.45,373.51z M207.61,359.57c0-4.62-3.39-8.47-8.16-8.47
		s-8.08,3.77-8.08,8.39v0.08c0,4.62,3.39,8.47,8.16,8.47c4.77,0,8.08-3.77,8.08-8.39V359.57z"/>
	<path class="st1" d="M239.45,373.43c-4.08,0-8.2-1.42-11.43-4.31l3.5-4.2c2.43,2,4.97,3.27,8.05,3.27c2.43,0,3.89-0.96,3.89-2.54
		v-0.08c0-1.5-0.92-2.27-5.43-3.43c-5.43-1.39-8.93-2.89-8.93-8.24v-0.08c0-4.89,3.93-8.12,9.43-8.12c3.93,0,7.28,1.23,10.01,3.43
		l-3.08,4.47c-2.39-1.66-4.74-2.66-7.01-2.66c-2.27,0-3.46,1.04-3.46,2.35v0.08c0,1.77,1.15,2.35,5.81,3.54
		c5.47,1.42,8.55,3.39,8.55,8.08v0.08C249.35,370.43,245.26,373.43,239.45,373.43z"/>
	<path class="st1" d="M265.36,373.47c-7.24,0-11.67-4.04-11.67-11.97v-15.4h5.93v15.25c0,4.39,2.19,6.66,5.81,6.66
		c3.62,0,5.81-2.19,5.81-6.47v-15.44h5.93v15.21C277.18,369.46,272.6,373.47,265.36,373.47z"/>
	<path class="st1" d="M293.28,364.96h-4.5v8.08h-5.93v-26.95h11.01c6.43,0,10.32,3.81,10.32,9.32v0.08
		C304.17,361.73,299.32,364.96,293.28,364.96z M298.17,355.53c0-2.66-1.85-4.08-4.81-4.08h-4.58v8.24h4.7c2.96,0,4.7-1.77,4.7-4.08
		V355.53z"/>
	<path class="st1" d="M308.18,373.04v-26.95h20.33v5.27h-14.44v5.47h12.7v5.27h-12.7v5.66h14.63v5.27H308.18z"/>
	<path class="st1" d="M349.95,373.04l-5.77-8.62h-4.66v8.62h-5.93v-26.95h12.32c6.35,0,10.16,3.35,10.16,8.89v0.08
		c0,4.35-2.35,7.08-5.77,8.35l6.58,9.62H349.95z M350.07,355.3c0-2.54-1.77-3.85-4.66-3.85h-5.89v7.74h6.01
		c2.89,0,4.54-1.54,4.54-3.81V355.3z"/>
	<path class="st1" d="M361.31,373.04v-26.95h5.93v26.95H361.31z"/>
	<path class="st1" d="M386.68,373.51c-8.32,0-14.28-6.2-14.28-13.86v-0.08c0-7.66,6.04-13.94,14.36-13.94
		c8.32,0,14.28,6.2,14.28,13.86v0.08C401.04,367.23,395,373.51,386.68,373.51z M394.85,359.57c0-4.62-3.39-8.47-8.16-8.47
		c-4.77,0-8.08,3.77-8.08,8.39v0.08c0,4.62,3.39,8.47,8.16,8.47s8.08-3.77,8.08-8.39V359.57z"/>
	<path class="st1" d="M422.3,373.04l-5.77-8.62h-4.66v8.62h-5.93v-26.95h12.32c6.35,0,10.16,3.35,10.16,8.89v0.08
		c0,4.35-2.35,7.08-5.77,8.35l6.58,9.62H422.3z M422.41,355.3c0-2.54-1.77-3.85-4.66-3.85h-5.89v7.74h6.01
		c2.89,0,4.54-1.54,4.54-3.81V355.3z"/>
	<path class="st1" d="M456.76,351.56v21.48h-5.93v-21.48h-8.2v-5.47h22.33v5.47H456.76z"/>
	<path class="st1" d="M469.12,373.04v-26.95h20.33v5.27h-14.44v5.47h12.7v5.27h-12.7v5.66h14.63v5.27H469.12z"/>
	<path class="st1" d="M507.16,373.51c-7.93,0-13.82-6.12-13.82-13.86v-0.08c0-7.66,5.77-13.94,14.05-13.94
		c5.08,0,8.12,1.69,10.63,4.16l-3.77,4.35c-2.08-1.89-4.2-3.04-6.89-3.04c-4.54,0-7.81,3.77-7.81,8.39v0.08
		c0,4.62,3.19,8.47,7.81,8.47c3.08,0,4.97-1.23,7.08-3.16l3.77,3.81C515.44,371.66,512.36,373.51,507.16,373.51z"/>
	<path class="st1" d="M541.46,373.04l-13.05-17.13v17.13h-5.85v-26.95h5.47l12.63,16.59v-16.59h5.85v26.95H541.46z"/>
	<path class="st1" d="M565.68,373.51c-8.32,0-14.28-6.2-14.28-13.86v-0.08c0-7.66,6.04-13.94,14.36-13.94
		c8.32,0,14.28,6.2,14.28,13.86v0.08C580.04,367.23,574,373.51,565.68,373.51z M573.84,359.57c0-4.62-3.39-8.47-8.16-8.47
		s-8.08,3.77-8.08,8.39v0.08c0,4.62,3.39,8.47,8.16,8.47s8.08-3.77,8.08-8.39V359.57z"/>
	<path class="st1" d="M584.93,373.04v-26.95h5.93v21.56h13.44v5.39H584.93z"/>
	<path class="st1" d="M621.47,373.51c-8.32,0-14.28-6.2-14.28-13.86v-0.08c0-7.66,6.04-13.94,14.36-13.94
		c8.32,0,14.28,6.2,14.28,13.86v0.08C635.83,367.23,629.79,373.51,621.47,373.51z M629.63,359.57c0-4.62-3.39-8.47-8.16-8.47
		s-8.08,3.77-8.08,8.39v0.08c0,4.62,3.39,8.47,8.16,8.47s8.08-3.77,8.08-8.39V359.57z M619.43,343.98l4.35-6.81l5.04,2.19
		l-4.93,4.62H619.43z"/>
	<path class="st1" d="M653.7,373.51c-8.39,0-14.17-5.89-14.17-13.86v-0.08c0-7.66,5.97-13.94,14.13-13.94
		c4.85,0,7.78,1.31,10.59,3.7l-3.73,4.5c-2.08-1.73-3.93-2.73-7.05-2.73c-4.31,0-7.74,3.81-7.74,8.39v0.08
		c0,4.93,3.39,8.55,8.16,8.55c2.16,0,4.08-0.54,5.58-1.62v-3.85h-5.97v-5.12h11.7v11.7C662.44,371.58,658.63,373.51,653.7,373.51z"
		/>
	<path class="st1" d="M670.79,373.04v-26.95h5.93v26.95H670.79z"/>
	<path class="st1" d="M695.7,373.51c-7.93,0-13.82-6.12-13.82-13.86v-0.08c0-7.66,5.77-13.94,14.05-13.94
		c5.08,0,8.12,1.69,10.63,4.16l-3.77,4.35c-2.08-1.89-4.2-3.04-6.89-3.04c-4.54,0-7.81,3.77-7.81,8.39v0.08
		c0,4.62,3.19,8.47,7.81,8.47c3.08,0,4.97-1.23,7.08-3.16l3.77,3.81C703.98,371.66,700.9,373.51,695.7,373.51z"/>
	<path class="st1" d="M724.2,373.51c-8.32,0-14.28-6.2-14.28-13.86v-0.08c0-7.66,6.04-13.94,14.36-13.94
		c8.32,0,14.28,6.2,14.28,13.86v0.08C738.56,367.23,732.51,373.51,724.2,373.51z M732.36,359.57c0-4.62-3.39-8.47-8.16-8.47
		s-8.08,3.77-8.08,8.39v0.08c0,4.62,3.39,8.47,8.16,8.47s8.08-3.77,8.08-8.39V359.57z"/>
	<path class="st1" d="M765.12,373.04h-10.51v-26.95h10.51c8.47,0,14.32,5.81,14.32,13.4v0.08
		C779.45,367.15,773.59,373.04,765.12,373.04z M773.25,359.57c0-4.77-3.27-8.12-8.12-8.12h-4.58v16.25h4.58
		c4.85,0,8.12-3.27,8.12-8.05V359.57z"/>
	<path class="st1" d="M784.34,373.04v-26.95h20.33v5.27h-14.44v5.47h12.7v5.27h-12.7v5.66h14.63v5.27H784.34z"/>
	<path class="st1" d="M16.75,397.77v21.48h-5.93v-21.48h-8.2v-5.47h22.33v5.47H16.75z"/>
	<path class="st1" d="M29.11,419.25V392.3h20.33v5.27H35v5.47h12.7v5.27H35v5.66h14.63v5.27H29.11z M36.04,390.18l4.35-6.81
		l5.04,2.19l-4.93,4.62H36.04z"/>
	<path class="st1" d="M67.15,419.71c-7.93,0-13.82-6.12-13.82-13.86v-0.08c0-7.66,5.77-13.94,14.05-13.94
		c5.08,0,8.12,1.69,10.63,4.16l-3.77,4.35c-2.08-1.89-4.2-3.04-6.89-3.04c-4.54,0-7.81,3.77-7.81,8.39v0.08
		c0,4.62,3.19,8.47,7.81,8.47c3.08,0,4.97-1.23,7.08-3.16l3.77,3.81C75.43,417.86,72.35,419.71,67.15,419.71z"/>
	<path class="st1" d="M101.46,419.25l-13.05-17.13v17.13h-5.85V392.3h5.47l12.63,16.59V392.3h5.85v26.95H101.46z"/>
	<path class="st1" d="M112.86,419.25V392.3h5.93v26.95H112.86z"/>
	<path class="st1" d="M137.77,419.71c-7.93,0-13.82-6.12-13.82-13.86v-0.08c0-7.66,5.77-13.94,14.05-13.94
		c5.08,0,8.12,1.69,10.63,4.16l-3.77,4.35c-2.08-1.89-4.2-3.04-6.89-3.04c-4.54,0-7.81,3.77-7.81,8.39v0.08
		c0,4.62,3.19,8.47,7.81,8.47c3.08,0,4.97-1.23,7.08-3.16l3.77,3.81C146.04,417.86,142.96,419.71,137.77,419.71z"/>
	<path class="st1" d="M173.23,419.25l-2.46-6.04h-11.4l-2.46,6.04h-6.04l11.55-27.14h5.47l11.55,27.14H173.23z M165.06,399.23
		l-3.58,8.74h7.16L165.06,399.23z"/>
	<path class="st1" d="M192.79,419.63c-4.08,0-8.2-1.42-11.43-4.31l3.5-4.2c2.43,2,4.97,3.27,8.05,3.27c2.42,0,3.89-0.96,3.89-2.54
		v-0.08c0-1.5-0.92-2.27-5.43-3.43c-5.43-1.39-8.93-2.89-8.93-8.24v-0.08c0-4.89,3.93-8.12,9.43-8.12c3.93,0,7.28,1.23,10.01,3.43
		l-3.08,4.47c-2.39-1.66-4.74-2.66-7.01-2.66c-2.27,0-3.46,1.04-3.46,2.35v0.08c0,1.77,1.15,2.35,5.81,3.54
		c5.47,1.42,8.55,3.39,8.55,8.08v0.08C202.68,416.63,198.6,419.63,192.79,419.63z"/>
	<path class="st1" d="M218.62,419.25V392.3h20.33v5.27h-14.44v5.47h12.7v5.27h-12.7v5.66h14.63v5.27H218.62z"/>
	<path class="st1" d="M265.09,419.25v-17.59l-7.58,11.51h-0.15l-7.51-11.4v17.48h-5.81V392.3h6.39l7.08,11.4l7.08-11.4h6.39v26.95
		H265.09z"/>
	<path class="st1" d="M287.5,411.16H283v8.08h-5.93V392.3h11.01c6.43,0,10.32,3.81,10.32,9.32v0.08
		C298.4,407.93,293.55,411.16,287.5,411.16z M292.39,401.73c0-2.66-1.85-4.08-4.81-4.08H283v8.24h4.7c2.96,0,4.7-1.77,4.7-4.08
		V401.73z"/>
	<path class="st1" d="M318.77,419.25l-5.77-8.62h-4.66v8.62h-5.93V392.3h12.32c6.35,0,10.16,3.35,10.16,8.89v0.08
		c0,4.35-2.35,7.08-5.77,8.35l6.58,9.62H318.77z M318.88,401.5c0-2.54-1.77-3.85-4.66-3.85h-5.89v7.74h6.01
		c2.89,0,4.54-1.54,4.54-3.81V401.5z"/>
	<path class="st1" d="M329.86,419.25V392.3h20.33v5.27h-14.44v5.47h12.7v5.27h-12.7v5.66h14.63v5.27H329.86z"/>
	<path class="st1" d="M364.85,419.63c-4.08,0-8.2-1.42-11.43-4.31l3.5-4.2c2.43,2,4.97,3.27,8.05,3.27c2.43,0,3.89-0.96,3.89-2.54
		v-0.08c0-1.5-0.92-2.27-5.43-3.43c-5.43-1.39-8.93-2.89-8.93-8.24v-0.08c0-4.89,3.93-8.12,9.43-8.12c3.93,0,7.28,1.23,10.01,3.43
		l-3.08,4.47c-2.39-1.66-4.74-2.66-7.01-2.66c-2.27,0-3.46,1.04-3.46,2.35v0.08c0,1.77,1.15,2.35,5.81,3.54
		c5.47,1.42,8.55,3.39,8.55,8.08v0.08C374.75,416.63,370.67,419.63,364.85,419.63z"/>
	<path class="st1" d="M399.58,419.25l-2.46-6.04h-11.4l-2.46,6.04h-6.04l11.55-27.14h5.47l11.55,27.14H399.58z M391.42,399.23
		l-3.58,8.74H395L391.42,399.23z"/>
	<path class="st1" d="M425.92,419.25l-5.77-8.62h-4.66v8.62h-5.93V392.3h12.32c6.35,0,10.16,3.35,10.16,8.89v0.08
		c0,4.35-2.35,7.08-5.77,8.35l6.58,9.62H425.92z M426.03,401.5c0-2.54-1.77-3.85-4.66-3.85h-5.89v7.74h6.01
		c2.89,0,4.54-1.54,4.54-3.81V401.5z"/>
	<path class="st1" d="M437.28,419.25V392.3h5.93v26.95H437.28z"/>
	<path class="st1" d="M469.62,419.25l-2.46-6.04h-11.4l-2.46,6.04h-6.04l11.55-27.14h5.47l11.55,27.14H469.62z M461.46,399.23
		l-3.58,8.74h7.16L461.46,399.23z"/>
	<path class="st1" d="M479.59,419.25V392.3h5.93v21.56h13.44v5.39H479.59z"/>
	<path class="st1" d="M503.04,419.25V392.3h20.33v5.27h-14.44v5.47h12.7v5.27h-12.7v5.66h14.63v5.27H503.04z"/>
	<path class="st1" d="M538.04,419.63c-4.08,0-8.2-1.42-11.43-4.31l3.5-4.2c2.43,2,4.97,3.27,8.05,3.27c2.43,0,3.89-0.96,3.89-2.54
		v-0.08c0-1.5-0.92-2.27-5.43-3.43c-5.43-1.39-8.93-2.89-8.93-8.24v-0.08c0-4.89,3.93-8.12,9.43-8.12c3.93,0,7.28,1.23,10.01,3.43
		l-3.08,4.47c-2.39-1.66-4.74-2.66-7.01-2.66c-2.27,0-3.46,1.04-3.46,2.35v0.08c0,1.77,1.15,2.35,5.81,3.54
		c5.47,1.42,8.55,3.39,8.55,8.08v0.08C547.93,416.63,543.85,419.63,538.04,419.63z"/>
	<path class="st1" d="M577.39,408.51v10.74h-5.93v-10.63L561.1,392.3h6.93l6.43,10.82l6.55-10.82h6.74L577.39,408.51z"/>
	<path class="st1" d="M612.73,419.25h-10.51V392.3h10.51c8.47,0,14.32,5.81,14.32,13.4v0.08
		C627.05,413.36,621.2,419.25,612.73,419.25z M620.85,405.77c0-4.77-3.27-8.12-8.12-8.12h-4.58v16.25h4.58
		c4.85,0,8.12-3.27,8.12-8.05V405.77z"/>
	<path class="st1" d="M631.95,419.25V392.3h20.33v5.27h-14.44v5.47h12.7v5.27h-12.7v5.66h14.63v5.27H631.95z"/>
	<path class="st1" d="M657.36,419.25V392.3h5.93v21.56h13.44v5.39H657.36z"/>
	<path class="st1" d="M704.6,419.71c-7.93,0-13.82-6.12-13.82-13.86v-0.08c0-7.66,5.77-13.94,14.05-13.94
		c5.08,0,8.12,1.69,10.63,4.16l-3.77,4.35c-2.08-1.89-4.2-3.04-6.89-3.04c-4.54,0-7.81,3.77-7.81,8.39v0.08
		c0,4.62,3.19,8.47,7.81,8.47c3.08,0,4.97-1.23,7.08-3.16l3.77,3.81C712.88,417.86,709.79,419.71,704.6,419.71z"/>
	<path class="st1" d="M733.09,419.71c-8.32,0-14.28-6.2-14.28-13.86v-0.08c0-7.66,6.04-13.94,14.36-13.94
		c8.32,0,14.28,6.2,14.28,13.86v0.08C747.45,413.43,741.4,419.71,733.09,419.71z M741.25,405.77c0-4.62-3.39-8.47-8.16-8.47
		c-4.77,0-8.08,3.77-8.08,8.39v0.08c0,4.62,3.39,8.47,8.16,8.47c4.77,0,8.08-3.77,8.08-8.39V405.77z"/>
	<path class="st1" d="M771.24,419.25l-13.05-17.13v17.13h-5.85V392.3h5.47l12.63,16.59V392.3h5.85v26.95H771.24z"/>
	<path class="st1" d="M795.46,419.71c-8.32,0-14.28-6.2-14.28-13.86v-0.08c0-7.66,6.04-13.94,14.36-13.94
		c8.32,0,14.28,6.2,14.28,13.86v0.08C809.82,413.43,803.78,419.71,795.46,419.71z M803.62,405.77c0-4.62-3.39-8.47-8.16-8.47
		s-8.08,3.77-8.08,8.39v0.08c0,4.62,3.39,8.47,8.16,8.47s8.08-3.77,8.08-8.39V405.77z"/>
	<path class="st1" d="M827.34,419.71c-7.93,0-13.82-6.12-13.82-13.86v-0.08c0-7.66,5.77-13.94,14.05-13.94
		c5.08,0,8.12,1.69,10.63,4.16l-3.77,4.35c-2.08-1.89-4.2-3.04-6.89-3.04c-4.54,0-7.81,3.77-7.81,8.39v0.08
		c0,4.62,3.19,8.47,7.81,8.47c3.08,0,4.97-1.23,7.08-3.16l3.77,3.81C835.62,417.86,832.54,419.71,827.34,419.71z"/>
	<path class="st1" d="M843.02,419.25V392.3h5.93v26.95H843.02z"/>
	<path class="st1" d="M876.36,419.25v-17.59l-7.58,11.51h-0.15l-7.51-11.4v17.48h-5.81V392.3h6.39l7.08,11.4l7.08-11.4h6.39v26.95
		H876.36z"/>
	<path class="st1" d="M888.6,419.25V392.3h5.93v26.95H888.6z"/>
	<path class="st1" d="M900.88,419.25V392.3h20.33v5.27h-14.44v5.47h12.7v5.27h-12.7v5.66h14.63v5.27H900.88z"/>
	<path class="st1" d="M945.2,419.25l-13.05-17.13v17.13h-5.85V392.3h5.47l12.63,16.59V392.3h5.85v26.95H945.2z"/>
	<path class="st1" d="M968.53,397.77v21.48h-5.93v-21.48h-8.2v-5.47h22.33v5.47H968.53z"/>
	<path class="st1" d="M993.98,419.71c-8.32,0-14.28-6.2-14.28-13.86v-0.08c0-7.66,6.04-13.94,14.36-13.94
		c8.32,0,14.28,6.2,14.28,13.86v0.08C1008.34,413.43,1002.3,419.71,993.98,419.71z M1002.14,405.77c0-4.62-3.39-8.47-8.16-8.47
		c-4.77,0-8.08,3.77-8.08,8.39v0.08c0,4.62,3.39,8.47,8.16,8.47s8.08-3.77,8.08-8.39V405.77z"/>
</g>
</svg>
